<svg xmlns="http://www.w3.org/2000/svg" viewBox="0 0 512 512">
  <!-- Maskable / mobile variant: BLACK background, same potted-sprout scaled to
       ~62% so any platform mask (circle, squircle) keeps it in the safe zone.
       Blocky single-jade leaves, no white glints. -->
  <rect width="512" height="512" fill="#000000"/>
  <g transform="translate(256 256) scale(0.62) translate(-256 -272)">
    <g transform="translate(16 16)" fill="#0a7d6b">
      <rect x="148" y="290" width="216" height="46" rx="12"/>
      <path d="M178 336 h156 l-16 104 q-2 16 -18 16 h-88 q-16 0 -18 -16 Z"/>
    </g>
    <path d="M256 296 V178" stroke="#1a1a1a" stroke-width="34" stroke-linecap="round" fill="none"/>
    <path d="M256 296 V178" stroke="#0fb39a" stroke-width="16" stroke-linecap="round" fill="none"/>
    <path d="M254 210 L206 206 L162 192 L140 162 L138 130 L172 122 L210 134 L240 164 L252 192 Z"
          fill="#0fb39a" stroke="#0fb39a" stroke-width="14"/>
    <path d="M258 180 L306 176 L350 162 L372 132 L374 100 L340 92 L302 104 L272 134 L258 162 Z"
          fill="#0fb39a" stroke="#0fb39a" stroke-width="14"/>
    <path d="M178 336 h156 l-16 104 q-2 16 -18 16 h-88 q-16 0 -18 -16 Z"
          fill="#faf7f0" stroke="#1a1a1a" stroke-width="14" stroke-linejoin="round"/>
    <rect x="148" y="290" width="216" height="46" rx="12"
          fill="#faf7f0" stroke="#1a1a1a" stroke-width="14"/>
    <circle cx="222" cy="384" r="11" fill="#1a1a1a"/>
    <circle cx="290" cy="384" r="11" fill="#1a1a1a"/>
    <path d="M236 404 Q256 438 276 404" stroke="#1a1a1a" stroke-width="11" stroke-linecap="round" fill="none"/>
    <circle cx="198" cy="404" r="10" fill="#ff90e8"/>
    <circle cx="314" cy="404" r="10" fill="#ff90e8"/>
  </g>
</svg>
